<svg width="40" height="37" viewBox="0 0 40 37" fill="none" xmlns="http://www.w3.org/2000/svg">
<path d="M21.875 29.7542L32.875 19.5792C33.0417 19.425 33.16 19.258 33.23 19.0781C33.2989 18.8983 33.3334 18.7056 33.3334 18.5C33.3334 18.2945 33.2989 18.1018 33.23 17.9219C33.16 17.742 33.0417 17.575 32.875 17.4209L21.875 7.24586C21.5695 6.96322 21.1878 6.81522 20.73 6.80186C20.2712 6.78953 19.875 6.93753 19.5417 7.24586C19.2084 7.5285 19.0345 7.88154 19.02 8.30498C19.0067 8.72946 19.1667 9.09586 19.5 9.40419L27.6667 16.9584H9.04171C8.56948 16.9584 8.17337 17.1058 7.85337 17.4008C7.53448 17.6968 7.37504 18.0632 7.37504 18.5C7.37504 18.9368 7.53448 19.3027 7.85337 19.5977C8.17337 19.8937 8.56948 20.0417 9.04171 20.0417H27.6667L19.5 27.5959C19.1945 27.8785 19.0345 28.2382 19.02 28.675C19.0067 29.1118 19.1667 29.4715 19.5 29.7542C19.8056 30.0625 20.1945 30.2167 20.6667 30.2167C21.1389 30.2167 21.5417 30.0625 21.875 29.7542Z" fill="black"/>
</svg>
