<svg width="40" height="37" viewBox="0 0 40 37" fill="none" xmlns="http://www.w3.org/2000/svg">
<path d="M18.125 29.7542L7.12496 19.5792C6.95829 19.425 6.83996 19.258 6.76996 19.0781C6.70107 18.8983 6.66663 18.7056 6.66663 18.5C6.66663 18.2945 6.70107 18.1018 6.76996 17.9219C6.83996 17.742 6.95829 17.575 7.12496 17.4209L18.125 7.24586C18.4305 6.96322 18.8122 6.81522 19.27 6.80186C19.7288 6.78953 20.125 6.93753 20.4583 7.24586C20.7916 7.5285 20.9655 7.88154 20.98 8.30498C20.9933 8.72946 20.8333 9.09586 20.5 9.40419L12.3333 16.9584H30.9583C31.4305 16.9584 31.8266 17.1058 32.1466 17.4008C32.4655 17.6968 32.625 18.0632 32.625 18.5C32.625 18.9368 32.4655 19.3027 32.1466 19.5977C31.8266 19.8937 31.4305 20.0417 30.9583 20.0417H12.3333L20.5 27.5959C20.8055 27.8785 20.9655 28.2382 20.98 28.675C20.9933 29.1118 20.8333 29.4715 20.5 29.7542C20.1944 30.0625 19.8055 30.2167 19.3333 30.2167C18.8611 30.2167 18.4583 30.0625 18.125 29.7542Z" fill="black"/>
</svg>
