<svg width="24" height="24" viewBox="0 0 24 24" fill="none" xmlns="http://www.w3.org/2000/svg">
<path d="M11.5 9C11.5 8.33696 11.7634 7.70107 12.2322 7.23223C12.7011 6.76339 13.337 6.5 14 6.5C15.1 6.5 16.03 7.21 16.37 8.19C16.45 8.45 16.5 8.72 16.5 9C16.5 9.3283 16.4353 9.65339 16.3097 9.95671C16.1841 10.26 15.9999 10.5356 15.7678 10.7678C15.5356 10.9999 15.26 11.1841 14.9567 11.3097C14.6534 11.4353 14.3283 11.5 14 11.5C12.91 11.5 12 10.81 11.64 9.84C11.55 9.58 11.5 9.29 11.5 9ZM5 9C5 13.5 10.08 19.66 11 20.81L10 22C10 22 3 14.25 3 9C3 5.83 5.11 3.15 8 2.29C6.16 3.94 5 6.33 5 9ZM14 2C17.86 2 21 5.13 21 9C21 14.25 14 22 14 22C14 22 7 14.25 7 9C7 5.13 10.14 2 14 2ZM14 4C11.24 4 9 6.24 9 9C9 10 9 12 14 18.71C19 12 19 10 19 9C19 6.24 16.76 4 14 4Z" fill="white"/>
</svg>
